<?xml version="1.0" encoding="UTF-8" standalone="no"?>
<!-- Generator: Adobe Illustrator 17.1.0, SVG Export Plug-In . SVG Version: 6.00 Build 0)  -->

<svg
   xmlns:dc="http://purl.org/dc/elements/1.1/"
   xmlns:cc="http://creativecommons.org/ns#"
   xmlns:rdf="http://www.w3.org/1999/02/22-rdf-syntax-ns#"
   xmlns:svg="http://www.w3.org/2000/svg"
   xmlns="http://www.w3.org/2000/svg"
   xmlns:sodipodi="http://sodipodi.sourceforge.net/DTD/sodipodi-0.dtd"
   xmlns:inkscape="http://www.inkscape.org/namespaces/inkscape"
   version="1.2"
   x="0px"
   y="0px"
   width="64px"
   height="64px"
   viewBox="0 0 64 64"
   xml:space="preserve"
   id="svg2"
   inkscape:version="0.91 r13725"
   sodipodi:docname="5019 beweegbare brug.svg"
   inkscape:export-filename="C:\dev\web\vr\csweb\images\5019 beweegbare brug.png"
   inkscape:export-xdpi="39.380001"
   inkscape:export-ydpi="39.380001"><metadata
     id="metadata20"><rdf:RDF><cc:Work
         rdf:about=""><dc:format>image/svg+xml</dc:format><dc:type
           rdf:resource="http://purl.org/dc/dcmitype/StillImage" /></cc:Work></rdf:RDF></metadata><defs
     id="defs18" /><sodipodi:namedview
     pagecolor="#ffffff"
     bordercolor="#666666"
     borderopacity="1"
     objecttolerance="10"
     gridtolerance="10"
     guidetolerance="10"
     inkscape:pageopacity="0"
     inkscape:pageshadow="2"
     inkscape:window-width="804"
     inkscape:window-height="480"
     id="namedview16"
     showgrid="false"
     inkscape:zoom="3.6875"
     inkscape:cx="32"
     inkscape:cy="32"
     inkscape:window-x="0"
     inkscape:window-y="0"
     inkscape:window-maximized="0"
     inkscape:current-layer="svg2" /><g
     id="_x36_4px_Boxes"><rect
       fill="none"
       width="64"
       height="64"
       id="rect5" /></g><g
     id="Production"><g
       id="g8"><path
         d="M44.2002,55.2199L43,54.32l-1.2002,0.8999C41.1601,55.6999,38.9043,57.07,37,57.07c-1.8906,0-4.1094-1.3379-4.7998-1.8501    L31,54.32l-1.2002,0.8999C29.1601,55.6999,26.9043,57.07,25,57.07c-0.6538,0-1.3445-0.1653-2-0.3958v4.0878    C23.6448,60.9058,24.3153,61,25,61c2.3965,0,4.6631-1.0762,6-1.8633C32.3369,59.9238,34.6035,61,37,61s4.6631-1.0762,6-1.8633    C44.3369,59.9238,46.6035,61,49,61c1.0491,0,2.0677-0.2119,3-0.5098V56.263c-0.9089,0.4283-2.0001,0.8069-3,0.8069    C47.1094,57.07,44.8906,55.7321,44.2002,55.2199z"
         id="path10" /><rect
         x="54"
         y="44"
         width="9"
         height="17"
         id="rect12" /><path
         d="M49.7704,33.2652l-3-5.1962L42,30.8233V8.612l3.101-1.9929c0.8838-0.5717,1.1611-1.7377,0.6291-2.6459    c-0.5289-0.9031-1.6724-1.2339-2.6018-0.7527L1.5398,24.8059c-0.4202,0.2178-0.6301,0.7004-0.5029,1.1564l1.7588,6.3057    c0.1811,0.6492,0.9394,0.937,1.5056,0.5715l14.5862-9.3613l0.0198-0.0031c0.048,0.036,0.3135,0.3043-0.0133,0.6914L15,28.0751V44    H5v17h16V49.8758L49.7704,33.2652z M39,10.54v22.0154L21,42.9476V22.1079L39,10.54z"
         id="path14" /></g></g></svg>