<?xml version="1.0" encoding="UTF-8" standalone="no"?>
<!-- Generator: Adobe Illustrator 19.1.0, SVG Export Plug-In . SVG Version: 6.00 Build 0)  -->

<svg
   xmlns:dc="http://purl.org/dc/elements/1.1/"
   xmlns:cc="http://creativecommons.org/ns#"
   xmlns:rdf="http://www.w3.org/1999/02/22-rdf-syntax-ns#"
   xmlns:svg="http://www.w3.org/2000/svg"
   xmlns="http://www.w3.org/2000/svg"
   xmlns:sodipodi="http://sodipodi.sourceforge.net/DTD/sodipodi-0.dtd"
   xmlns:inkscape="http://www.inkscape.org/namespaces/inkscape"
   version="1.2"
   x="0px"
   y="0px"
   width="64px"
   height="64px"
   viewBox="0 0 64 64"
   xml:space="preserve"
   id="svg2"
   inkscape:version="0.91 r13725"
   sodipodi:docname="7020 handhaving.svg"
   inkscape:export-filename="C:\dev\web\cs\apps\sgbo\website\public\images\7020 handhaving.png"
   inkscape:export-xdpi="45"
   inkscape:export-ydpi="45"><metadata
     id="metadata14"><rdf:RDF><cc:Work
         rdf:about=""><dc:format>image/svg+xml</dc:format><dc:type
           rdf:resource="http://purl.org/dc/dcmitype/StillImage" /></cc:Work></rdf:RDF></metadata><defs
     id="defs12" /><sodipodi:namedview
     pagecolor="#ffffff"
     bordercolor="#666666"
     borderopacity="1"
     objecttolerance="10"
     gridtolerance="10"
     guidetolerance="10"
     inkscape:pageopacity="0"
     inkscape:pageshadow="2"
     inkscape:window-width="1600"
     inkscape:window-height="821"
     id="namedview10"
     showgrid="false"
     inkscape:zoom="3.6875"
     inkscape:cx="32"
     inkscape:cy="32"
     inkscape:window-x="-9"
     inkscape:window-y="-9"
     inkscape:window-maximized="1"
     inkscape:current-layer="svg2" /><g
     id="Box"><rect
       fill="none"
       width="64"
       height="64"
       id="rect5" /></g><g
     id="Icon"><path
       d="M56.1043,28.6705c-0.9017-0.7501-2.6851-0.7929-4.9108,1.2347c-2.5374,2.3117-4.136,5.0172-6.0332,7.3815   c-2.0769,2.5883-2.6488,2.016-5.8063,2.4783c-5.0173,0.7346-8.8886,4.0511-8.8886,4.0511   c-0.0528-0.0674-0.1685-0.2693,0.0939-0.6031c0,0,3.1652-4.7377,11.3952-6.0701c0-0.0012-0.3322-26.9208-0.3996-28.579   c-0.0582-1.434-1.2732-2.5492-2.7083-2.5287l-0.0065,0.0001c-1.4343,0.0204-2.5452,1.171-2.6351,2.6025   c-0.0939,1.4955-0.8144,19.7215-0.8616,20.4216c-0.0356,0.5275-0.4726,0.9308-0.9955,0.8532   c-0.0073-0.0011-0.0147-0.0022-0.0221-0.0033c-0.424-0.0626-0.7291-0.4236-0.751-0.8516   C33.5469,28.5156,33.2488,6.9721,33.171,5.539s-1.2732-2.5491-2.7083-2.5287l-0.0065,0.0001   c-1.4343,0.0204-2.5969,1.1687-2.6351,2.6025s-0.3836,22.6684-0.3862,23.1907c-0.0022,0.4515-0.3527,0.8167-0.8021,0.8602   c-0.006,0.0006-0.012,0.0012-0.0181,0.0018c-0.5034,0.0491-0.8992-0.3548-0.9442-0.8585   c-0.0456-0.5101-0.832-18.8349-0.9099-20.268s-1.2731-2.5491-2.7082-2.5287L22.046,6.0104   c-1.4342,0.0204-2.5968,1.1687-2.6351,2.6025s0.0533,22.0722,0.0491,22.4084s-0.2037,0.6337-0.5067,0.7796   c-0.0058,0.0028-0.0117,0.0056-0.0175,0.0085c-0.5693,0.2753-1.1855-0.1483-1.2399-0.7784   c-0.0554-0.6403-0.875-13.6578-0.9413-14.8779s-1.0839-2.1703-2.3057-2.1528l-0.0056,0.0001   c-1.2211,0.0173-2.2109,0.995-2.2434,2.2156s-0.1624,16.8314-0.1651,16.8342c0,8.1076-0.3953,15.3601,1.8269,19.3772   c5.774,10.4378,20.8079,10.5486,27.6972,4.5297c7.2194-6.3071,7.9376-14.337,14.3739-24.0772   C57.3292,30.7669,56.9856,29.4031,56.1043,28.6705z"
       id="path8" /></g></svg>