<?xml version="1.0" encoding="UTF-8" standalone="no"?>
<!-- Generator: Adobe Illustrator 19.1.0, SVG Export Plug-In . SVG Version: 6.00 Build 0)  -->

<svg
   xmlns:dc="http://purl.org/dc/elements/1.1/"
   xmlns:cc="http://creativecommons.org/ns#"
   xmlns:rdf="http://www.w3.org/1999/02/22-rdf-syntax-ns#"
   xmlns:svg="http://www.w3.org/2000/svg"
   xmlns="http://www.w3.org/2000/svg"
   xmlns:sodipodi="http://sodipodi.sourceforge.net/DTD/sodipodi-0.dtd"
   xmlns:inkscape="http://www.inkscape.org/namespaces/inkscape"
   version="1.2"
   x="0px"
   y="0px"
   width="64px"
   height="64px"
   viewBox="0 0 64 64"
   xml:space="preserve"
   id="svg2"
   inkscape:version="0.91 r13725"
   sodipodi:docname="7022 brandweerkazerne.svg"
   inkscape:export-filename="C:\dev\web\vr\csweb\images\7022 brandweerkazerne.png"
   inkscape:export-xdpi="39.375"
   inkscape:export-ydpi="39.375"><metadata
     id="metadata18"><rdf:RDF><cc:Work
         rdf:about=""><dc:format>image/svg+xml</dc:format><dc:type
           rdf:resource="http://purl.org/dc/dcmitype/StillImage" /></cc:Work></rdf:RDF></metadata><defs
     id="defs16" /><sodipodi:namedview
     pagecolor="#ffffff"
     bordercolor="#666666"
     borderopacity="1"
     objecttolerance="10"
     gridtolerance="10"
     guidetolerance="10"
     inkscape:pageopacity="0"
     inkscape:pageshadow="2"
     inkscape:window-width="804"
     inkscape:window-height="480"
     id="namedview14"
     showgrid="false"
     inkscape:zoom="3.6875"
     inkscape:cx="32"
     inkscape:cy="32"
     inkscape:window-x="0"
     inkscape:window-y="0"
     inkscape:window-maximized="0"
     inkscape:current-layer="svg2" /><g
     id="Box"><rect
       fill="none"
       width="64"
       height="64"
       id="rect5" /></g><g
     id="Icon"
     transform="matrix(1.1468927,0,0,1.1468927,-4.700565,-4.8474576)"><g
       id="g8"><path
         d="m 41.2615,41 -0.5969,0 C 40.6073,40.4904 40.5311,39.8418 40.3904,39.1368 40.1874,38.0295 39.8312,36.854 39.0552,35.711 38.8689,35.4365 38.601,35.2417 38.2996,35.124 38.2922,35.0236 38.2738,34.9236 38.2414,34.8262 l -0.2722,-0.8163 c -0.151,-0.453 -0.5055,-0.7945 -0.9419,-0.937 C 36.882,33.0254 36.7274,33 36.5682,33 l -9.1365,0 c -0.1592,0 -0.3138,0.0254 -0.4592,0.0729 -0.4365,0.1425 -0.7909,0.4839 -0.9419,0.937 l -0.2722,0.8163 c -0.0324,0.0974 -0.0508,0.1974 -0.0582,0.2978 -0.3013,0.1177 -0.5692,0.3125 -0.7556,0.587 -0.776,1.143 -1.1323,2.3185 -1.3352,3.4258 -0.1406,0.705 -0.2169,1.3536 -0.2742,1.8632 l -0.5969,0 C 22.3306,41 22,41.2975 22,41.6644 l 0,2.2356 0,0.4219 c 0,0.3669 0.3306,0.6644 0.7385,0.6644 l 0.2704,0 C 23.0031,45.0889 23,45.1484 23,45.1484 c 0,1.3306 0,1.7183 0,1.8156 0,0.0234 0,0.0313 0,0.03 0,0.1657 0,1.1827 0,6.3184 0,0 0,2.5384 0.1686,3.2465 0.0612,0.2576 0.332,0.441 0.644,0.441 l 2.3748,0 c 0.312,0 0.5829,-0.1834 0.644,-0.441 C 27.0255,55.7437 27,54 27,54 l 4.5392,0 0.4113,0 L 37,54 c 0,0 -0.0255,1.7437 0.1686,2.559 0.0611,0.2576 0.332,0.441 0.644,0.441 l 2.3748,0 c 0.3121,0 0.5829,-0.1834 0.644,-0.441 C 41,55.8509 41,53.3125 41,53.3125 c 0,-5.1357 0,-6.1527 0,-6.3184 0,-0.0198 0,-0.0291 0,-0.03 0,-0.0974 0,-0.485 0,-1.8156 0,0 -0.0031,-0.0596 -0.0089,-0.1621 l 0.2704,0 C 41.6693,44.9864 42,44.6889 42,44.322 L 42,43.9 42,41.6644 C 42,41.2975 41.6694,41 41.2615,41 Z M 28,51.75 C 28,51.8881 27.8881,52 27.75,52 l -2.5,0 C 25.1119,52 25,51.8881 25,51.75 l 0,-1.5 C 25,50.1119 25.1119,50 25.25,50 l 2.5,0 c 0.1381,0 0.25,0.1119 0.25,0.25 l 0,1.5 z M 26.5674,45 25.3896,45 C 25.1589,45 24.9959,44.8007 25,44.5656 c 0.0011,-0.0652 0.0047,-0.1413 0.0067,-0.2101 9e-4,3e-4 0.0019,4e-4 0.0028,7e-4 0.0403,-1.5295 0.2553,-3.4341 0.5104,-5.0046 9e-4,-0.0056 0.0041,-0.0102 0.0052,-0.0157 0.0424,-0.1827 0.1765,-0.3212 0.3575,-0.3342 0.0091,-7e-4 0.0168,-0.0051 0.0261,-0.0051 l 12.1826,0 c 0.0093,0 0.017,0.0044 0.0261,0.0051 0.181,0.013 0.3151,0.1516 0.3575,0.3342 0.0011,0.0056 0.0043,0.0101 0.0052,0.0157 0.2551,1.5705 0.47,3.475 0.5104,5.0046 9e-4,-3e-4 0.0019,-4e-4 0.0028,-7e-4 0.002,0.0688 0.0056,0.1449 0.0067,0.2101 C 39.0041,44.8007 38.841,45 38.6104,45 l -1.1778,0 -10.8652,0 z M 39,51.75 C 39,51.8881 38.8881,52 38.75,52 l -2.5,0 C 36.1119,52 36,51.8881 36,51.75 l 0,-1.5 c 0.0977,-0.0977 0.1523,-0.1523 0.25,-0.25 l 2.5,0 c 0.1381,0 0.25,0.1119 0.25,0.25 l 0,1.5 z"
         id="path10"
         inkscape:connector-curvature="0" /><path
         d="M 32,9 8,21 8,57 19,57 19,31 45,31 45,57 56,57 56,21 32,9 Z m 4.4991,16.2042 -2.9984,0 c -0.0716,0.7432 -0.6905,1.3263 -1.4525,1.3263 -0.762,0 -1.3809,-0.5831 -1.4525,-1.3263 l -3.1176,0 c -0.4101,0 -0.6458,-0.4665 -0.4025,-0.7966 l 0.668,-0.9065 c 0.2873,-0.3899 0.4759,-0.8435 0.5497,-1.3221 l 0.5754,-3.7292 c 0.3407,-1.3099 1.6326,-2.2356 3.1199,-2.2356 l 10e-5,0 c 1.4873,0 2.7792,0.9257 3.1198,2.2356 l 0.5754,3.7292 c 0.0739,0.4786 0.2625,0.9323 0.5497,1.3221 l 0.668,0.9065 c 0.2433,0.3301 0.0076,0.7966 -0.4025,0.7966 z"
         id="path12"
         inkscape:connector-curvature="0" /></g></g></svg>