<?xml version="1.0" encoding="UTF-8" standalone="no"?>
<!-- Generator: Adobe Illustrator 18.1.1, SVG Export Plug-In . SVG Version: 6.00 Build 0)  -->

<svg
   xmlns:dc="http://purl.org/dc/elements/1.1/"
   xmlns:cc="http://creativecommons.org/ns#"
   xmlns:rdf="http://www.w3.org/1999/02/22-rdf-syntax-ns#"
   xmlns:svg="http://www.w3.org/2000/svg"
   xmlns="http://www.w3.org/2000/svg"
   xmlns:sodipodi="http://sodipodi.sourceforge.net/DTD/sodipodi-0.dtd"
   xmlns:inkscape="http://www.inkscape.org/namespaces/inkscape"
   version="1.2"
   x="0px"
   y="0px"
   width="64px"
   height="64px"
   viewBox="0 0 64 64"
   xml:space="preserve"
   id="svg2"
   inkscape:version="0.91 r13725"
   sodipodi:docname="8006 ambassade - consulaat.svg"
   inkscape:export-filename="C:\dev\web\cs\apps\sgbo\website\public\images\8006 ambassade - consulaat.png"
   inkscape:export-xdpi="33.75"
   inkscape:export-ydpi="33.75"><metadata
     id="metadata20"><rdf:RDF><cc:Work
         rdf:about=""><dc:format>image/svg+xml</dc:format><dc:type
           rdf:resource="http://purl.org/dc/dcmitype/StillImage" /></cc:Work></rdf:RDF></metadata><defs
     id="defs18" /><sodipodi:namedview
     pagecolor="#ffffff"
     bordercolor="#666666"
     borderopacity="1"
     objecttolerance="10"
     gridtolerance="10"
     guidetolerance="10"
     inkscape:pageopacity="0"
     inkscape:pageshadow="2"
     inkscape:window-width="1600"
     inkscape:window-height="821"
     id="namedview16"
     showgrid="false"
     inkscape:zoom="3.6875"
     inkscape:cx="32"
     inkscape:cy="32"
     inkscape:window-x="-9"
     inkscape:window-y="-9"
     inkscape:window-maximized="1"
     inkscape:current-layer="svg2" /><g
     id="Box"><rect
       fill="none"
       width="64"
       height="64"
       id="rect5" /></g><g
     id="Icon"><g
       id="g8"><path
         d="M45,31c-8.8366,0-16,7.1634-16,16c0,8.8365,7.1634,16,16,16s16-7.1635,16-16C61,38.1634,53.8366,31,45,31z     M46.5661,33.6942c5.8497,0.6848,10.5527,5.1459,11.6076,10.8761l-1.498,1.9973l-1.7297,0.8649l-1.7297-1.7297l-0.9266-1.668    c0,0,1.1959-1.1975,0.8649-1.8322c-0.331-0.6348-2.2005,0.3984-2.5701-0.1575c-0.3696-0.5562-0.0406-2.4549-0.0406-2.4549    l-2.318-0.9545c0,0-0.7241-0.014-0.6635,0.5321c0.0682,0.6136,1.7542,1.5864,1.6179,1.8591    c-0.1257,0.2515-0.5454,0.0682-0.5454,0.0682l-0.6409,1.1248l-1.3362-0.3009c0,0,1.0159-0.3851,1.1395-0.7557    c0.1236-0.3707-1.4999-1.7044-1.4999-1.7044l-0.905,0.2045l-0.4091,1.6362l-1.0908,0.9545l-1.4302-0.0108l0.1274-0.7927    l-0.5237-0.0147l0.6819-1.7675l1.4042,0.1171c0,0,0.5184-1.3544,0.4156-1.8c-0.1995-0.8649-1.1016-0.9626-1.1016-1.3036    c0-0.3409,0.9719-0.3358,1.4492-0.813C45.2111,35.5727,46.0055,34.4808,46.5661,33.6942z M41.8977,33.9716    c0.8088-0.1927,1.6447-0.3084,2.5023-0.3466l0.1243,0.2016c0,0-0.3079,1.6204-0.8217,1.7571    c-0.5137,0.137-1.9927-0.7153-1.9927-0.7153L41.8977,33.9716z M35.9189,56.8324c-2.2006-2.0341-3.7141-4.7889-4.1673-7.8909    c1.5106,1.0107,4.1673,3.0497,4.1673,4.9024C35.9189,54.9533,35.9189,55.9987,35.9189,56.8324z M37.5992,37.8054    c0,0-1.8304,2.3859-3.1101,3.6775c-0.588,0.5934-1.4615,1.056-2.2357,1.3845c1.131-3.4793,3.6506-6.3279,6.9-7.9119    L37.5992,37.8054z M52.6322,55.0591c-0.2216,0.395-0.8292,0.6058-1.1006,0.9946c-0.4899,0.7022-0.3508,1.9379-0.91,2.2125    c-0.9992,0.4907-2.1614,0.7188-2.4342,0.4604c-0.3815-0.3615-1.2253-1.9055-1.2253-2.4167v-3.6884    c0-0.6615-0.8836-2.2285-0.8836-2.2285s-2.0917-0.0195-2.8948-0.0195s-2.0241-1.1526-2.0241-1.1526s-0.6795-2.2511,0-3.6554    c0.6796-1.4044,1.7101-1.5475,1.7101-1.5475l3.5831-0.7198l2.0514,1.2012l2.7352,0.5204l0.7573,1.0372l1.2194,1.7211    l1.7297,0.9012l1.7297-1.4755c0,0-0.1706,2.0693-0.8524,3.3608c-0.6818,1.2915-2.4507,2.2602-2.4507,2.2602    S53.2042,54.0398,52.6322,55.0591z M54.3577,56.5809l-0.5236-1.1531l1.1822-2.1417l1.9164-0.2076    C56.2652,54.3832,55.3964,55.5662,54.3577,56.5809z"
         id="path10" /><polygon
         points="28,4.7985 36.1613,15 53,15 45,2 10,2 3,15 19.8387,15   "
         id="polygon12" /><path
         d="M37,29.7905V21h8v7c1.7327,0,3.4039,0.2532,5,0.6897V17H35.2L28,8l-7.2,9H6v36h10v-2h4v-2h4V35h6.2852    C32.0898,32.7912,34.3877,31.01,37,29.7905z M19,45h-8V35h8V45z M19,31h-8V21h8V31z M28,13.5c1.3809,0,2.5,1.1191,2.5,2.5    c0,1.3809-1.1191,2.5-2.5,2.5c-1.3809,0-2.5-1.1191-2.5-2.5C25.5,14.6191,26.6191,13.5,28,13.5z M24,21h8v10h-8V21z"
         id="path14" /></g></g></svg>