<?xml version="1.0" encoding="UTF-8" standalone="no"?>
<svg
   xmlns:dc="http://purl.org/dc/elements/1.1/"
   xmlns:cc="http://creativecommons.org/ns#"
   xmlns:rdf="http://www.w3.org/1999/02/22-rdf-syntax-ns#"
   xmlns:svg="http://www.w3.org/2000/svg"
   xmlns="http://www.w3.org/2000/svg"
   xmlns:sodipodi="http://sodipodi.sourceforge.net/DTD/sodipodi-0.dtd"
   xmlns:inkscape="http://www.inkscape.org/namespaces/inkscape"
   version="1.1"
   x="0px"
   y="0px"
   viewBox="0 0 100 100"
   enable-background="new 0 0 100 100"
   xml:space="preserve"
   id="svg2"
   inkscape:version="0.91 r13725"
   sodipodi:docname="antenna.svg"
   inkscape:export-filename="C:\Users\Erik\Downloads\antenna.png"
   inkscape:export-xdpi="25.200001"
   inkscape:export-ydpi="25.200001"><metadata
     id="metadata150"><rdf:RDF><cc:Work
         rdf:about=""><dc:format>image/svg+xml</dc:format><dc:type
           rdf:resource="http://purl.org/dc/dcmitype/StillImage" /><dc:title></dc:title></cc:Work></rdf:RDF></metadata><defs
     id="defs148" /><sodipodi:namedview
     pagecolor="#ffffff"
     bordercolor="#666666"
     borderopacity="1"
     objecttolerance="10"
     gridtolerance="10"
     guidetolerance="10"
     inkscape:pageopacity="0"
     inkscape:pageshadow="2"
     inkscape:window-width="727"
     inkscape:window-height="480"
     id="namedview146"
     showgrid="false"
     inkscape:zoom="2.36"
     inkscape:cx="50"
     inkscape:cy="50"
     inkscape:window-x="0"
     inkscape:window-y="0"
     inkscape:window-maximized="0"
     inkscape:current-layer="svg2" /><g
     transform="translate(0.7288139,0.22245785)"
     id="g114"><path
       style="fill:#000000;stroke:#1f1a55;stroke-width:10.99660015;stroke-miterlimit:10"
       inkscape:connector-curvature="0"
       stroke-miterlimit="10"
       d="M 49.999,2.25"
       id="path116" /><path
       inkscape:connector-curvature="0"
       d="M 32.143,72.526"
       id="path118" /><path
       inkscape:connector-curvature="0"
       d="M 67.472,72.731"
       id="path120" /><path
       inkscape:connector-curvature="0"
       d="M 67.436,6.578"
       id="path122" /><path
       inkscape:connector-curvature="0"
       d="M 32.483,6.617"
       id="path124" /><path
       inkscape:connector-curvature="0"
       d="M 28.637,21.54"
       id="path126" /><path
       inkscape:connector-curvature="0"
       d="M 49.999,11.603"
       id="path128" /><path
       inkscape:connector-curvature="0"
       d="M 71.008,21.125"
       id="path130" /><path
       inkscape:connector-curvature="0"
       d="M 72.786,55.951"
       id="path132" /><path
       inkscape:connector-curvature="0"
       d="M 26.798,55.358"
       id="path134" /><path
       inkscape:connector-curvature="0"
       d="M 30.03,76.384 C 16.628,69.044 8.303,54.974 8.303,39.665 8.303,24.171 16.774,10.021 30.411,2.737 l 4.145,7.76 C 23.789,16.248 17.1,27.424 17.1,39.665 c 0,12.094 6.574,23.208 17.156,29.004 l -4.226,7.715 z"
       id="path136" /><path
       inkscape:connector-curvature="0"
       d="M 69.539,76.614 65.404,68.848 C 76.196,63.103 82.9,51.92 82.9,39.665 82.9,27.391 76.184,16.201 65.373,10.463 l 4.125,-7.771 c 13.693,7.268 22.199,21.435 22.199,36.973 0,15.514 -8.49,29.672 -22.158,36.949 z"
       id="path138" /><path
       inkscape:connector-curvature="0"
       d="m 68.818,57.227 -3.582,-2.551 c 3.128,-4.393 4.781,-9.584 4.781,-15.011 0,-6.304 -2.28,-12.373 -6.419,-17.088 l 3.305,-2.901 c 4.845,5.518 7.513,12.618 7.513,19.99 0,6.346 -1.936,12.419 -5.598,17.561 z"
       id="path140" /><path
       inkscape:connector-curvature="0"
       d="M 30.732,56.587 C 27.361,51.582 25.581,45.73 25.586,39.663 c 0,-7.156 2.53,-14.096 7.125,-19.542 l 3.362,2.837 c -3.926,4.653 -6.088,10.586 -6.088,16.706 -0.003,5.188 1.517,10.19 4.396,14.465 l -3.649,2.458 z"
       id="path142" /><path
       inkscape:connector-curvature="0"
       d="m 62.168,40.515 c 0,-6.915 -5.429,-12.513 -12.318,-12.513 -6.889,0 -13.09,5.598 -13.09,12.513 0,4.476 2.241,8.389 5.241,10.599 l 0,47.886 14,0 0,-47.886 C 59,48.905 62.168,44.991 62.168,40.515 Z"
       id="path144" /></g></svg>