<?xml version="1.0" encoding="UTF-8" standalone="no"?>
<svg
   xmlns:dc="http://purl.org/dc/elements/1.1/"
   xmlns:cc="http://creativecommons.org/ns#"
   xmlns:rdf="http://www.w3.org/1999/02/22-rdf-syntax-ns#"
   xmlns:svg="http://www.w3.org/2000/svg"
   xmlns="http://www.w3.org/2000/svg"
   xmlns:sodipodi="http://sodipodi.sourceforge.net/DTD/sodipodi-0.dtd"
   xmlns:inkscape="http://www.inkscape.org/namespaces/inkscape"
   version="1.1"
   x="0px"
   y="0px"
   viewBox="0 3.509 100 99.999998"
   enable-background="new 0 3.509 100 92.983"
   xml:space="preserve"
   id="svg2"
   inkscape:version="0.91 r13725"
   sodipodi:docname="noun_13101.svg"
   width="100"
   height="100"
   inkscape:export-filename="D:\Downloads\bicycle.png"
   inkscape:export-xdpi="28.799999"
   inkscape:export-ydpi="28.799999"><metadata
     id="metadata24"><rdf:RDF><cc:Work
         rdf:about=""><dc:format>image/svg+xml</dc:format><dc:type
           rdf:resource="http://purl.org/dc/dcmitype/StillImage" /><dc:title></dc:title></cc:Work></rdf:RDF></metadata><defs
     id="defs22" /><sodipodi:namedview
     pagecolor="#ffffff"
     bordercolor="#666666"
     borderopacity="1"
     objecttolerance="10"
     gridtolerance="10"
     guidetolerance="10"
     inkscape:pageopacity="0"
     inkscape:pageshadow="2"
     inkscape:window-width="1920"
     inkscape:window-height="1053"
     id="namedview20"
     showgrid="false"
     inkscape:zoom="2.5380983"
     inkscape:cx="50"
     inkscape:cy="46.491501"
     inkscape:window-x="-9"
     inkscape:window-y="-9"
     inkscape:window-maximized="1"
     inkscape:current-layer="svg2" /><polygon
     points="23.979,62.338 23.978,62.341 23.979,62.341 "
     id="polygon4"
     style="fill:none"
     transform="translate(-0.39399577,3.4710364)" /><path
     d="m 51.428004,22.964036 c 4.4,0 7.986,-3.584 7.986,-7.992 0,-4.408 -3.586,-7.9919999 -7.986,-7.9919999 -4.414,0 -7.999,3.5839999 -7.999,7.9919999 0,4.408 3.585,7.992 7.999,7.992 z"
     id="path6"
     inkscape:connector-curvature="0" /><polygon
     points="23.979,62.291 23.979,62.338 23.991,62.295 "
     id="polygon8"
     transform="translate(-0.39399577,3.4710364)" /><path
     d="m 81.935004,64.606036 c -2.347,0 -4.658,0.469 -6.819,1.37 l 0.039,-0.165 -4.124,-7.261 0.25,0 -0.007,-0.026 c 2.748,-0.25 4.85,-2.543 4.85,-5.298 0,-0.646 -0.125,-1.291 -0.354,-1.897 l 0.11,-0.039 -10.655,-26.877 -0.139,-0.039 c -0.804,-2.022 -2.768,-3.354 -4.941,-3.354 -1.008,0 -1.996,0.29 -2.846,0.83 l -0.066,-0.105 -32.2,21.071 -0.072,-0.118 c -1.015,0.672 -1.621,1.805 -1.621,3.023 0,2.004 1.628,3.631 3.638,3.631 0.31,0 0.625,-0.049 0.929,-0.121 l 0.033,-0.123 0.026,0.112 c -0.019,0.005 -0.039,0.007 -0.059,0.011 l -4.322,16.343 0,0.188 c 0.004,0.001 0.008,0.002 0.012,0.004 l -0.012,0.043 0,0.003 -0.001,0 0.001,-0.003 0,-0.047 c -2.013,-0.769 -4.149,-1.155 -6.3,-1.155 -9.7519998,0 -17.67899977,7.926 -17.67899977,17.671 0,9.76 7.92699997,17.686002 17.67899977,17.686002 9.758,0 17.678,-7.926002 17.678,-17.686002 0,-5.766 -2.813,-11.168 -7.537,-14.476 l 0.026,-0.04 0.73,-2.188 20.578,14.528 2.424,6.292 -4.117,1.7 -0.04,-0.104 c -0.85,0.315 -1.41,1.133 -1.41,2.041 0,1.199 0.976,2.176 2.175,2.176 0.237,0 0.468,-0.041 0.691,-0.112 l 0.033,0.112 12.592,-4.844 -1.45,-3.631 4.665,0 0.178,0 -0.178,0 c 0.744,9.172 8.414,16.229002 17.612,16.229002 9.758,0 17.671,-7.927002 17.671,-17.685002 0,-9.744 -7.913,-17.67 -17.671,-17.67 z m -52.302,17.672 c 0,6.819 -5.529,12.354 -12.348,12.354 -6.814,0 -12.3479998,-5.535 -12.3479998,-12.354 0,-6.807 5.5349998,-12.348 12.3479998,-12.348 1.665,0 3.311,0.335 4.844,0.993 l 0.006,-0.024 0,0.026 c -0.002,-0.001 -0.004,-0.001 -0.006,-0.002 l -0.725,2.888 -0.441,0.014 c -0.765,2.715 -2.485,5.055 -4.85,6.59 l 0.23,0.217 c -0.468,0.309 -0.751,0.844 -0.751,1.41 0,0.941 0.757,1.693 1.693,1.693 0.086,0 0.158,-0.008 0.237,-0.014 l -0.237,-0.225 0.25,0.093 c 3.479,-0.619 6.299,-3.084 7.327,-6.365 l 0.171,-0.026 0.926,-3.701 c -0.021,-0.021 -0.04,-0.046 -0.062,-0.067 l 0.105,-0.104 -0.043,0.172 c 2.344,2.32 3.674,5.476 3.674,8.78 z m 44.31,-9.442 0.021,0.013 c -0.003,0.003 -0.006,0.005 -0.009,0.008 l 4.587,7.728 -8.717,0 -0.125,0.02 c 0.414,-3.021 1.935,-5.771 4.255,-7.747 l -0.012,-0.022 z m -44.555,-11.616 0.487,-2.669 11.143,0 c 0,0.079 0,0.165 0,0.25 0,0.909 0.171,1.806 0.521,2.648 l -0.046,0.014 4.368,11.136 -16.473,-11.379 z m 17.922,-9.443 0,0.04 c -1.838,0.183 -3.531,1.093 -4.711,2.529 l -0.132,-0.15 -11.386,0 1.219,-4.119 -0.343,-0.027 c 0.225,-0.698 0.343,-1.422 0.343,-2.147 0,-0.501 -0.053,-0.996 -0.158,-1.477 l 0.158,0.026 18.641,-12.11 6.536,16.466 -10.167,0.969 z m 4.601,11.862 -0.053,0.025 c -0.126,-0.315 -0.186,-0.658 -0.186,-0.994 0,-1.377 1.041,-2.53 2.418,-2.648 l -0.006,-0.021 7.268,-0.48 -5.323,14.766 -4.118,-10.648 z m 12.431,16.951 -5.896,-0.006 7.748,-21.309 5.087,8.723 0.093,0.105 c -4.006,2.986 -6.557,7.525 -7.032,12.487 z m 17.594,14.04 c -6.268,0 -11.537,-4.691 -12.262,-10.911 l 0.15,0.013 12.836,0 0,-0.237 c 0.803,0 1.455,-0.651 1.455,-1.455 0,-0.27 -0.072,-0.521 -0.211,-0.744 l 0.211,0.013 -6.292,-10.647 -0.006,-0.014 c 1.317,-0.475 2.708,-0.719 4.118,-0.719 6.82,0 12.348,5.541 12.348,12.348 10e-4,6.818 -5.529,12.353 -12.347,12.353 z"
     id="path10"
     inkscape:connector-curvature="0" /><path
     d="m 27.940004,49.108036 -0.033,0.123 c 0.02,-0.004 0.04,-0.006 0.059,-0.011 l -0.026,-0.112 z"
     id="path12"
     inkscape:connector-curvature="0" /><polygon
     points="74.349,69.386 74.357,69.378 74.337,69.365 "
     id="polygon14"
     transform="translate(-0.39399577,3.4710364)" /><polygon
     points="22.523,67.452 22.529,67.454 22.529,67.428 "
     id="polygon16"
     transform="translate(-0.39399577,3.4710364)" /><path
     d="m 25.897004,73.429036 c 0.022,0.021 0.041,0.046 0.062,0.067 l 0.043,-0.172 -0.105,0.105 z"
     id="path18"
     inkscape:connector-curvature="0" /></svg>