<?xml version="1.0" encoding="UTF-8" standalone="no"?>
<!-- Generator: Adobe Illustrator 19.2.1, SVG Export Plug-In . SVG Version: 6.00 Build 0)  -->

<svg
   xmlns:dc="http://purl.org/dc/elements/1.1/"
   xmlns:cc="http://creativecommons.org/ns#"
   xmlns:rdf="http://www.w3.org/1999/02/22-rdf-syntax-ns#"
   xmlns:svg="http://www.w3.org/2000/svg"
   xmlns="http://www.w3.org/2000/svg"
   xmlns:sodipodi="http://sodipodi.sourceforge.net/DTD/sodipodi-0.dtd"
   xmlns:inkscape="http://www.inkscape.org/namespaces/inkscape"
   version="1.1"
   id="svg4619"
   inkscape:version="0.91 r13725"
   sodipodi:docname="bus.svg"
   x="0px"
   y="0px"
   width="100"
   height="100"
   viewBox="0 0 100 100"
   xml:space="preserve"
   inkscape:export-filename="C:\dev\web\vr\csweb\images\bus.png"
   inkscape:export-xdpi="25.200001"
   inkscape:export-ydpi="25.200001"><metadata
     id="metadata8"><rdf:RDF><cc:Work
         rdf:about=""><dc:format>image/svg+xml</dc:format><dc:type
           rdf:resource="http://purl.org/dc/dcmitype/StillImage" /><dc:title></dc:title></cc:Work></rdf:RDF></metadata><defs
     id="defs6" /><sodipodi:namedview
     pagecolor="#ffffff"
     bordercolor="#666666"
     borderopacity="1"
     objecttolerance="10"
     gridtolerance="10"
     guidetolerance="10"
     inkscape:pageopacity="0"
     inkscape:pageshadow="2"
     inkscape:window-width="1600"
     inkscape:window-height="821"
     id="namedview4"
     showgrid="false"
     inkscape:zoom="6.28"
     inkscape:cx="50"
     inkscape:cy="50"
     inkscape:window-x="-9"
     inkscape:window-y="-9"
     inkscape:window-maximized="1"
     inkscape:current-layer="svg4619" /><path
     id="path8043"
     d="m 30.049322,6.7662921 c -7.828619,0 -17.223419,4.2673899 -17.223419,15.7657449 l 0,31.307009 0,21.820933 c 0,0 0,5.741138 5.741139,5.741138 l 0,5.741138 c 0,0 0,5.741137 5.741141,5.741137 5.741139,0 5.741139,-5.741137 5.741139,-5.741137 l 0,-5.741138 40.187979,0 0,5.741138 c 0,0 0,5.741137 5.74114,5.741137 5.74114,0 5.74114,-5.741137 5.74114,-5.741137 l 0,-5.741138 c 0,0 5.741139,0 5.741139,-5.741138 l 0,-53.127942 c 0,-11.743502 -7.096049,-15.7657449 -14.924667,-15.7657449 l -42.486731,0 z m 1.435285,8.6117099 37.317409,0 c 0.795148,0 1.435285,0.640137 1.435285,1.435285 0,0.795149 -0.640137,1.435286 -1.435285,1.435286 l -37.317409,0 c -0.795146,0 -1.435285,-0.640137 -1.435285,-1.435286 0,-0.795148 0.640139,-1.435285 1.435285,-1.435285 z m -7.176424,8.611711 51.670258,0 c 5.74114,0 5.74114,5.550533 5.74114,5.550533 l 0,17.414026 c 0,0 0,5.74114 -5.74114,5.74114 l -51.670258,0 c -5.741141,0 -5.741141,-5.74114 -5.741141,-5.74114 l 0,-17.223421 c 0,0 0,-5.741138 5.741141,-5.741138 z m 0,40.187978 c 3.170831,0 5.741139,2.570306 5.741139,5.741138 0,3.170831 -2.570308,5.74115 -5.741139,5.74115 -3.170833,0 -5.741141,-2.570319 -5.741141,-5.74115 0,-3.170832 2.570308,-5.741138 5.741141,-5.741138 z m 51.670258,0 c 3.170832,0 5.74114,2.570306 5.74114,5.741138 0,3.170831 -2.570308,5.74115 -5.74114,5.74115 -3.170831,0 -5.74114,-2.570319 -5.74114,-5.74115 0,-3.170832 2.570309,-5.741138 5.74114,-5.741138 z"
     inkscape:connector-curvature="0" /></svg>