<?xml version="1.0" encoding="UTF-8" standalone="no"?>
<svg
   xmlns:dc="http://purl.org/dc/elements/1.1/"
   xmlns:cc="http://creativecommons.org/ns#"
   xmlns:rdf="http://www.w3.org/1999/02/22-rdf-syntax-ns#"
   xmlns:svg="http://www.w3.org/2000/svg"
   xmlns="http://www.w3.org/2000/svg"
   xmlns:sodipodi="http://sodipodi.sourceforge.net/DTD/sodipodi-0.dtd"
   xmlns:inkscape="http://www.inkscape.org/namespaces/inkscape"
   version="1.1"
   x="0px"
   y="0px"
   viewBox="0 0 100 100"
   enable-background="new 0 0 100 100"
   xml:space="preserve"
   id="svg2"
   inkscape:version="0.91 r13725"
   sodipodi:docname="buurt.svg"
   inkscape:export-filename="C:\Users\Erik\Downloads\noun_15064.png"
   inkscape:export-xdpi="25.200001"
   inkscape:export-ydpi="25.200001"><metadata
     id="metadata22"><rdf:RDF><cc:Work
         rdf:about=""><dc:format>image/svg+xml</dc:format><dc:type
           rdf:resource="http://purl.org/dc/dcmitype/StillImage" /><dc:title></dc:title></cc:Work></rdf:RDF></metadata><defs
     id="defs20" /><sodipodi:namedview
     pagecolor="#ffffff"
     bordercolor="#666666"
     borderopacity="1"
     objecttolerance="10"
     gridtolerance="10"
     guidetolerance="10"
     inkscape:pageopacity="0"
     inkscape:pageshadow="2"
     inkscape:window-width="804"
     inkscape:window-height="480"
     id="namedview18"
     showgrid="false"
     inkscape:zoom="2.36"
     inkscape:cx="50"
     inkscape:cy="50"
     inkscape:window-x="0"
     inkscape:window-y="0"
     inkscape:window-maximized="0"
     inkscape:current-layer="svg2" /><g
     id="g4"><g
       id="g6"><g
         id="g8"><g
           id="g10"><path
             d="M80.539,56.692v-3.059h-2.655v3.059H80.539z M80.539,60.213v-3.059h-2.655v3.059H80.539z M81.309,60.213h2.654v-3.059      h-2.654V60.213z M83.963,56.692v-3.059h-2.654v3.059H83.963z M89.214,65.561H72.671V50.614v-0.616v-2.75l7.868-5.617l4.02,2.809      h0.231v-2.771h3.347l-0.038,5.232l7.194,5.021l-3.405,0.385v13.254H89.214z"
             id="path12" /><path
             d="M49.473,49.671V44.17h-4.771v5.501H49.473z M49.473,56v-5.502h-4.771V56H49.473z M50.839,50.498V56h4.751v-5.502H50.839      z M55.59,49.671V44.17h-4.751v5.501H55.59z M75.961,41.092l-6.117,0.692v23.776h-4.79h-29.7h-4.771V41.092h-6.944l25.834-18.485      l7.214,5.059v-5.059h6.482v9.561L75.961,41.092z"
             id="path14" /><path
             d="M18.811,56.712v-3.059h-2.654v3.059H18.811z M18.811,60.231v-3.059h-2.654v3.059H18.811z M22.234,60.231v-3.059H19.58      v3.059H22.234z M22.234,56.712v-3.059H19.58v3.059H22.234z M27.447,50.633v14.946H10.904H8.23V52.326l-3.404-0.385l7.194-5.021      l-0.038-5.232h3.347v2.77h0.23l4.021-2.808l7.867,5.616v2.751V50.633z"
             id="path16" /></g></g></g></g></svg>