<?xml version="1.0" encoding="UTF-8" standalone="no"?>
<!-- Generator: Adobe Illustrator 18.1.1, SVG Export Plug-In . SVG Version: 6.00 Build 0)  -->

<svg
   xmlns:dc="http://purl.org/dc/elements/1.1/"
   xmlns:cc="http://creativecommons.org/ns#"
   xmlns:rdf="http://www.w3.org/1999/02/22-rdf-syntax-ns#"
   xmlns:svg="http://www.w3.org/2000/svg"
   xmlns="http://www.w3.org/2000/svg"
   xmlns:sodipodi="http://sodipodi.sourceforge.net/DTD/sodipodi-0.dtd"
   xmlns:inkscape="http://www.inkscape.org/namespaces/inkscape"
   version="1.2"
   x="0px"
   y="0px"
   width="64px"
   height="64px"
   viewBox="0 0 64 64"
   xml:space="preserve"
   id="svg2"
   inkscape:version="0.91 r13725"
   sodipodi:docname="cctv.svg"
   inkscape:export-filename="C:\dev\web\cs\apps\sgbo\website\public\images\cctv.png"
   inkscape:export-xdpi="33.75"
   inkscape:export-ydpi="33.75"><metadata
     id="metadata14"><rdf:RDF><cc:Work
         rdf:about=""><dc:format>image/svg+xml</dc:format><dc:type
           rdf:resource="http://purl.org/dc/dcmitype/StillImage" /></cc:Work></rdf:RDF></metadata><defs
     id="defs12" /><sodipodi:namedview
     pagecolor="#ffffff"
     bordercolor="#666666"
     borderopacity="1"
     objecttolerance="10"
     gridtolerance="10"
     guidetolerance="10"
     inkscape:pageopacity="0"
     inkscape:pageshadow="2"
     inkscape:window-width="1600"
     inkscape:window-height="821"
     id="namedview10"
     showgrid="false"
     inkscape:zoom="3.6875"
     inkscape:cx="32"
     inkscape:cy="32"
     inkscape:window-x="-9"
     inkscape:window-y="-9"
     inkscape:window-maximized="1"
     inkscape:current-layer="svg2" /><g
     id="Box"><rect
       fill="none"
       width="64"
       height="64"
       id="rect5" /></g><g
     id="Icon"><path
       d="M61,40v16h-0.04c-2.187,0-3.96-1.7729-3.96-3.96V51H41c-3.8599,0-7-3.1401-7-7v-2.004l6-2.7979V44c0,0.5513,0.4487,1,1,1   h16v-1.04c0-2.1871,1.7729-3.96,3.96-3.96H61z M55.6179,23.0884l-34.304,15.9962c-1.2824,0.5981-2.7937,0.4788-3.9725-0.34   L7.8249,32.134c-1.3088,0.6103-2.8078,1.3093-2.8585,1.3329c-0.8549,0.3986-0.4127,3.1564,0.9877,6.1597   s3.2288,5.1147,4.0837,4.716c0.0336-0.0156,0.7049-0.3287,1.5338-0.7152l-1.4879-6.1143   c-0.0419-0.3304,0.1646-0.3755,0.2244-0.3803l4.4037,9.4438c0.4668,1.001,1.6568,1.4341,2.6578,0.9673l40.7839-19.0178   L55.6179,23.0884z M18.4824,37.1019c0.5757,0.3998,1.3319,0.4751,1.9863,0.17l37.0229-17.2641L50.3071,4.6006L4.845,25.7999   c-0.7183,0.335-0.7801,1.3325-0.1087,1.7535L18.4824,37.1019z"
       id="path8" /></g></svg>