<?xml version="1.0" encoding="UTF-8" standalone="no"?>
<svg
   xmlns:dc="http://purl.org/dc/elements/1.1/"
   xmlns:cc="http://creativecommons.org/ns#"
   xmlns:rdf="http://www.w3.org/1999/02/22-rdf-syntax-ns#"
   xmlns:svg="http://www.w3.org/2000/svg"
   xmlns="http://www.w3.org/2000/svg"
   xmlns:sodipodi="http://sodipodi.sourceforge.net/DTD/sodipodi-0.dtd"
   xmlns:inkscape="http://www.inkscape.org/namespaces/inkscape"
   version="1.1"
   x="0px"
   y="0px"
   viewBox="0 0 100 100"
   enable-background="new 0 0 100 100"
   xml:space="preserve"
   id="svg2"
   inkscape:version="0.91 r13725"
   sodipodi:docname="electrical_tower.svg"
   inkscape:export-filename="C:\Users\Erik\Downloads\hoogspanningsmast.png"
   inkscape:export-xdpi="25"
   inkscape:export-ydpi="25"><metadata
     id="metadata62"><rdf:RDF><cc:Work
         rdf:about=""><dc:format>image/svg+xml</dc:format><dc:type
           rdf:resource="http://purl.org/dc/dcmitype/StillImage" /><dc:title></dc:title></cc:Work></rdf:RDF></metadata><defs
     id="defs60" /><sodipodi:namedview
     pagecolor="#ffffff"
     bordercolor="#666666"
     borderopacity="1"
     objecttolerance="10"
     gridtolerance="10"
     guidetolerance="10"
     inkscape:pageopacity="0"
     inkscape:pageshadow="2"
     inkscape:window-width="1600"
     inkscape:window-height="821"
     id="namedview58"
     showgrid="false"
     inkscape:zoom="6.28"
     inkscape:cx="78.928185"
     inkscape:cy="52.299816"
     inkscape:window-x="-9"
     inkscape:window-y="-9"
     inkscape:window-maximized="1"
     inkscape:current-layer="svg2" /><path
     d="M 47.744141 4.0214844 L 47.744141 15.771484 L 41.796875 18.388672 L 34.525391 21.589844 L 34.601562 21.589844 C 34.517886 21.647116 34.460938 21.738166 34.460938 21.847656 L 34.460938 23.375 C 34.460938 23.551433 34.602864 23.693359 34.779297 23.693359 L 46.015625 23.693359 L 42.908203 35.158203 L 35.603516 36.892578 L 22.121094 40.095703 L 22.404297 40.095703 C 22.321881 40.153151 22.263672 40.245002 22.263672 40.353516 L 22.263672 41.878906 C 22.263672 42.055339 22.405598 42.197266 22.582031 42.197266 L 41 42.197266 L 27.980469 90.242188 L 27.423828 90.242188 L 27.423828 94.544922 L 32.373047 94.544922 L 32.373047 90.242188 L 31.355469 90.242188 L 32.751953 85.085938 L 48.814453 72.134766 L 65.535156 85.617188 L 66.789062 90.242188 L 65.800781 90.242188 L 65.800781 94.544922 L 70.75 94.544922 L 70.75 90.242188 L 70.166016 90.242188 L 59.402344 50.521484 L 58.529297 47.306641 L 57.144531 42.197266 L 75.796875 42.197266 C 75.973308 42.197266 76.115234 42.055339 76.115234 41.878906 L 76.115234 40.353516 C 76.115234 40.245002 76.057025 40.153151 75.974609 40.095703 L 76.050781 40.095703 L 75.933594 40.068359 C 75.891468 40.047873 75.847034 40.033203 75.796875 40.033203 L 75.787109 40.033203 L 62.568359 36.892578 L 55.234375 35.150391 L 52.128906 23.693359 L 63.470703 23.693359 C 63.647136 23.693359 63.789062 23.551433 63.789062 23.375 L 63.789062 21.847656 C 63.789062 21.676062 63.654055 21.538749 63.484375 21.53125 L 56.341797 18.388672 L 50.429688 15.785156 L 50.429688 4.0214844 L 47.744141 4.0214844 z M 49.072266 24.865234 L 51.628906 34.294922 L 49.085938 33.691406 L 46.515625 34.300781 L 49.072266 24.865234 z M 44.375 42.197266 L 45.986328 42.197266 L 55.945312 50.226562 L 58.427734 59.382812 L 48.816406 67.132812 L 39.626953 59.722656 L 44.375 42.197266 z M 52.195312 42.197266 L 53.769531 42.197266 L 54.210938 43.822266 L 52.195312 42.197266 z M 59.541016 63.492188 L 63.802734 79.214844 L 51.919922 69.634766 L 59.541016 63.492188 z M 38.513672 63.830078 L 45.714844 69.632812 L 34.488281 78.683594 L 38.513672 63.830078 z "
     id="path10" /></svg>