<?xml version="1.0" encoding="utf-8"?>
<!-- Generator: Adobe Illustrator 18.1.1, SVG Export Plug-In . SVG Version: 6.00 Build 0)  -->
<svg version="1.2" baseProfile="tiny" xmlns="http://www.w3.org/2000/svg" xmlns:xlink="http://www.w3.org/1999/xlink" x="0px"
	 y="0px" width="64px" height="64px" viewBox="0 0 64 64" xml:space="preserve">
<g id="Box">
	<rect fill="none" width="64" height="64"/>
</g>
<g id="Icon">
	<g>
		<path d="M43.3257,33.7527c0.3618-1.0652,0.7862-2.7364-1.0132-4.5652c-1.5618-1.5873-4.0625-1.5-4.0625-1.5
			c-0.0068-0.0924,0.6875-2.75-1.3125-4.4375c-2.6011-2.1946-4.9322-0.9371-4.9322-0.9371c0.3849-2.3057-0.5631-4.0168-1.893-4.9967
			c-2.5498-1.8787-4.3947-0.8052-5.3948,0.0326c-0.5338,0.4472-1.1453,0.9888-1.7537,1.5395
			c1.4503,1.2252,4.7886,4.0413,6.7364,5.6537c1.3193,1.0923,3.0039,2.8374,2.4033,5.3755c-0.269,1.1362-1.46,3.6895-6.6929,2.8833
			c-2.0562-0.3159-4.3496-1.1968-5.4443-1.6523l-0.0137,0.0137c0.6746,0.6946,1.7608,1.814,2.6597,3.356
			c2.3655,4.058,1.7512,7.4119,1.0376,9.3177c-0.1668,0.4454-0.3843,0.6486-0.5031,0.5117
			c0.7676-4.9579-2.3038-9.8037-6.0716-13.1185l2.4395-2.4678c1.8501,0.8404,4.1905,1.754,6.1997,2.063
			c1.8125,0.2778,4.0552,0.2681,4.4429-1.3672c0.1992-0.8428,0.1274-1.8345-1.7324-3.374
			c-2.0617-1.7067-5.6128-4.8574-6.9841-5.8636c-1.1342-0.8322-2.7462-0.6678-3.6282-0.0944
			c-0.8856,0.5757-4.6469,3.7909-6.7647,5.6166c-0.945,0.8146-1.5461,1.9437-1.6943,3.1826
			c-0.3068,2.566-0.9157,7.2233-1.2851,10.9632c-0.1365,1.3822-0.714,2.6835-1.6893,3.6724
			c-0.9753,0.9888-3.975,4.0302-3.975,4.0302l13.4022,14.8198c0,0,5.4615-5.6343,6.1937-6.4097s1.6893-1.3684,2.7518-1.4595
			c3.7455-0.3212,4.4892,1.6857,11.5369-5.5369c0,0-0.506-0.2369-0.743-0.3618c-2.5855-1.3626-2.3916-3.9347-2.3916-3.9347
			c-2.5284,0.0662-4.2873-1.0131-4.7191-3.2675c-0.166-0.8666,0.0649-1.1584,0.2953-1.1287c2.856,4.282,6.1201,2.4728,6.1201,2.4728
			c-0.1992,2.1434,0.3566,3.3037,1.129,3.9169c2.0396,1.6191,3.7053,0.1624,4.9498-0.9382
			c1.5444-1.3658,3.4793-3.3915,4.6297-5.4129C48.0132,36.0374,43.3257,33.7527,43.3257,33.7527z"/>
	</g>
	<path d="M47.4355,62.6636l-12.421-5.0372c-1.5712-0.6372-0.471-3.674,1.1536-3.1365l10.434,3.452l-1.3672-13.0112l11.4756-6.5605
		l-9.8936-8.3618l7.0537-14.687l-16.1011,2.4912L32.6362,5.9199l-9.6074,9.0791L10.9741,9.918L11,20.5231
		c0.0118,1.5365-3.0129,1.7759-3.1621,0.1605L6.6973,7.7515c-0.1705-1.906,1.7496-3.312,3.5205-2.5684l11.9458,5.0356l9.2627-8.7539
		c1.2811-1.2125,3.3831-0.7794,4.082,0.8418l4.7495,11.0039l15.7504-2.4377c2.2522-0.3486,3.6315,1.829,2.7881,3.5905
		l-6.9492,14.4688l9.1553,7.7378c1.3468,1.1379,1.1525,3.2744-0.3794,4.1499l-11.064,6.3257l1.3402,12.7571
		C51.1261,62.061,49.1461,63.3521,47.4355,62.6636z"/>
</g>
</svg>
