<?xml version="1.0" encoding="UTF-8" standalone="no"?>
<svg
   xmlns:dc="http://purl.org/dc/elements/1.1/"
   xmlns:cc="http://creativecommons.org/ns#"
   xmlns:rdf="http://www.w3.org/1999/02/22-rdf-syntax-ns#"
   xmlns:svg="http://www.w3.org/2000/svg"
   xmlns="http://www.w3.org/2000/svg"
   xmlns:sodipodi="http://sodipodi.sourceforge.net/DTD/sodipodi-0.dtd"
   xmlns:inkscape="http://www.inkscape.org/namespaces/inkscape"
   version="1.1"
   x="0px"
   y="0px"
   viewBox="0 0 100 100"
   xml:space="preserve"
   id="svg2"
   inkscape:version="0.91 r13725"
   sodipodi:docname="policecar.svg"
   width="100"
   height="100"><metadata
     id="metadata24"><rdf:RDF><cc:Work
         rdf:about=""><dc:format>image/svg+xml</dc:format><dc:type
           rdf:resource="http://purl.org/dc/dcmitype/StillImage" /><dc:title></dc:title></cc:Work></rdf:RDF></metadata><defs
     id="defs22" /><sodipodi:namedview
     pagecolor="#ffffff"
     bordercolor="#666666"
     borderopacity="1"
     objecttolerance="10"
     gridtolerance="10"
     guidetolerance="10"
     inkscape:pageopacity="0"
     inkscape:pageshadow="2"
     inkscape:window-width="1600"
     inkscape:window-height="821"
     id="namedview20"
     showgrid="false"
     inkscape:zoom="1.888"
     inkscape:cx="50"
     inkscape:cy="62.5"
     inkscape:window-x="-9"
     inkscape:window-y="-9"
     inkscape:window-maximized="1"
     inkscape:current-layer="svg2" /><path
     d="m 60.967038,20.378167 6.732839,0 c 0.94496,0 1.53556,0.5906 1.53556,1.53556 0,0.94496 -0.5906,1.53556 -1.53556,1.53556 l -6.732839,0 0,-3.07112 z"
     id="path4"
     inkscape:connector-curvature="0" /><path
     d="m 39.469202,23.331167 -6.732839,0 c -0.94496,0 -1.53556,-0.5906 -1.53556,-1.53556 0,-0.94496 0.5906,-1.53556 1.53556,-1.53556 l 6.732839,0 0,3.07112 z"
     id="path6"
     inkscape:connector-curvature="0" /><path
     d="m 48.68256,11.164809 0,-6.7328395 c 0,-0.9449598 0.5906,-1.5355601 1.53556,-1.5355601 0.94496,0 1.53556,0.5906003 1.53556,1.5355601 l 0,6.7328395 -3.07112,0 z"
     id="path8"
     inkscape:connector-curvature="0" /><path
     d="m 56.950959,12.936608 4.606679,-4.606679 c 0.5906,-0.5906 1.53556,-0.5906 2.12616,0 0.5906,0.5905999 0.5906,1.5355597 0,2.12616 l -4.606679,4.606679 -2.12616,-2.12616 z"
     id="path10"
     inkscape:connector-curvature="0" /><path
     d="m 41.359121,15.180888 -4.606679,-4.606679 c -0.5906,-0.5906003 -0.5906,-1.5355602 0,-2.1261601 0.5906,-0.5905999 1.53556,-0.5905999 2.12616,0 l 4.606679,4.4885591 -2.12616,2.24428 z"
     id="path12"
     inkscape:connector-curvature="0" /><path
     d="m 9.9392061,52.743042 3.0711199,0 c 0.944959,0 2.126159,-0.94496 2.126159,-1.889919 l 4.37044,-18.662958 c 0.5906,-2.480519 2.716759,-4.252319 5.197279,-4.252319 l 17.245517,0 0,-8.858999 c 0,-2.716759 2.48052,-5.197279 5.197279,-5.197279 l 6.14224,0 c 2.716759,0 5.197279,2.48052 5.197279,5.197279 l 0,8.858999 17.245517,0 c 2.48052,0 4.606679,1.88992 5.197279,4.252319 l 4.25232,18.662958 c 0.35436,0.944959 1.1812,1.889919 2.126159,1.889919 l 3.07112,0 c 2.48052,0 4.606679,2.12616 4.606679,4.60668 l 0,17.363637 c 0,2.48052 -2.126159,4.606679 -4.606679,4.606679 l -3.07112,0 0,8.268399 c 0,2.48052 -2.126159,4.606679 -4.606679,4.606679 l -7.087199,0 c -2.480519,0 -4.606679,-2.126159 -4.606679,-4.606679 l 0,-8.268399 -41.814474,0 0,8.268399 c 0,2.48052 -2.12616,4.606679 -4.606679,4.606679 l -7.087199,0 c -2.48052,0 -4.606679,-2.126159 -4.606679,-4.606679 l 0,-8.268399 -3.0711199,0 c -2.4805196,0 -4.6066793,-2.126159 -4.6066793,-4.606679 l 0,-17.481757 c 0.11812,-2.3624 2.2442796,-4.48856 4.7247993,-4.48856 z M 50.21812,16.952688 l -3.07112,0 c -1.181199,0 -2.126159,0.94496 -2.126159,2.126159 l 0,8.858999 5.197279,0 0,-10.985158 z m 29.175636,54.925791 c 3.425479,0 6.142239,-2.716759 6.142239,-6.142239 0,-3.307359 -2.71676,-6.142239 -6.142239,-6.142239 -3.42548,0 -6.142239,2.71676 -6.142239,6.142239 0,3.42548 2.834879,6.142239 6.142239,6.142239 z m -0.5906,-21.025356 -3.66172,-16.536798 -49.137912,0 -3.66172,16.536798 56.461352,0 z M 21.278724,71.878479 c 3.42548,0 6.142239,-2.716759 6.142239,-6.142239 0,-3.307359 -2.716759,-6.142239 -6.142239,-6.142239 -3.425479,0 -6.142239,2.71676 -6.142239,6.142239 0,3.42548 2.83488,6.142239 6.142239,6.142239 z"
     id="path14"
     inkscape:connector-curvature="0" /></svg>