<svg xmlns="http://www.w3.org/2000/svg" xmlns:xlink="http://www.w3.org/1999/xlink" version="1.1" x="0px" y="0px" viewBox="0 0 100 100" enable-background="new 0 0 100 100" xml:space="preserve"><g><rect x="-192" width="185" height="99"></rect><rect y="-36" width="100" height="30"></rect><text transform="matrix(1 0 0 1 66 -19.5)" fill="#000000" font-family="'Helvetica'" font-size="2.4">http://thenounproject.com</text><text transform="matrix(1 0 0 1 7.166 -24.5)"><tspan x="0" y="0" fill="#000000" font-family="'Helvetica-Bold'" font-size="6.1578">The Noun Project</tspan><tspan x="1.12" y="4.8" fill="#000000" font-family="'Helvetica-Bold'" font-size="4">Icon Template</tspan></text><text transform="matrix(1 0 0 1 -178.5 10.5)" fill="#000000" font-family="'Helvetica-Bold'" font-size="6.1578">Reminders</text><line fill="#000000" stroke="#FFFFFF" stroke-miterlimit="10" x1="8" y1="-14.5" x2="18" y2="-14.5"></line><line fill="#000000" stroke="#FFFFFF" stroke-miterlimit="10" x1="-179" y1="16.5" x2="-162" y2="16.5"></line><g><g><g><rect x="-170.802" y="31.318" fill="#000000" width="8.721" height="8.642"></rect><path fill="#000000" d="M-164.455,42.312h4.747v-4.703h-4.747V42.312z M-159.266,42.749h-5.63V37.17h5.63V42.749      L-159.266,42.749z M-166.221,44.062h8.279v-8.203h-8.279V44.062L-166.221,44.062z M-157.5,44.5h-9.163v-9.079h9.163V44.5      L-157.5,44.5z"></path><polygon fill="#000000" points="-166.149,44.133 -166.292,43.991 -158.013,35.787 -157.871,35.929     "></polygon></g></g></g><rect x="-179" y="58" fill="none" width="35" height="32.5"></rect><text transform="matrix(1 0 0 1 -179 60.1572)"><tspan x="0" y="0" fill="#000000" font-family="'Helvetica-Bold'" font-size="3">Strokes</tspan><tspan x="0" y="5" fill="#000000" font-family="'Helvetica'" font-size="2.4">Try to keep strokes at 4px</tspan><tspan x="0" y="10" fill="#000000" font-family="'Helvetica'" font-size="2.4">Minimum stroke weight is 2px</tspan><tspan x="0" y="14.5" fill="#000000" font-family="'Helvetica'" font-size="2.4">For thicker strokes use even </tspan><tspan x="0" y="17.5" fill="#000000" font-family="'Helvetica'" font-size="2.4">numbers: 6px, 8px etc.</tspan><tspan x="0" y="22" fill="#000000" font-family="'Helvetica-Bold'" font-size="2.4">Remember to expand strokes </tspan><tspan x="0" y="25" fill="#000000" font-family="'Helvetica-Bold'" font-size="2.4">before saving as an SVG </tspan></text><rect x="-136.5" y="58" fill="none" width="35" height="32.5"></rect><text transform="matrix(1 0 0 1 -136.5 60.1572)"><tspan x="0" y="0" fill="#000000" font-family="'Helvetica-Bold'" font-size="3">Size</tspan><tspan x="0" y="5" fill="#000000" font-family="'Helvetica'" font-size="2.4">Cannot be wider or taller than </tspan><tspan x="0" y="8.5" fill="#000000" font-family="'Helvetica'" font-size="2.4">100px (artboard size)</tspan><tspan x="0" y="13.5" fill="#000000" font-family="'Helvetica'" font-size="2.4">Scale your icon to fill as much of </tspan><tspan x="0" y="16.5" fill="#000000" font-family="'Helvetica'" font-size="2.4">the artboard as possible</tspan></text><rect x="-94" y="58" fill="none" width="35" height="32.5"></rect><text transform="matrix(1 0 0 1 -94 60.1572)"><tspan x="0" y="0" fill="#000000" font-family="'Helvetica-Bold'" font-size="3">Ungroup</tspan><tspan x="0" y="5" fill="#000000" font-family="'Helvetica'" font-size="2.4">If your design has more than one </tspan><tspan x="0" y="8" fill="#000000" font-family="'Helvetica'" font-size="2.4">shape, make sure to ungroup</tspan></text><rect x="-50" y="58" fill="none" width="35" height="32.5"></rect><text transform="matrix(1 0 0 1 -50 60.1572)"><tspan x="0" y="0" fill="#000000" font-family="'Helvetica-Bold'" font-size="3">Save as</tspan><tspan x="0" y="5" fill="#000000" font-family="'Helvetica'" font-size="2.4">Save as .SVG and make sure </tspan><tspan x="0" y="8" fill="#000000" font-family="'Helvetica'" font-size="2.4">“Use Artboards” is checked</tspan></text><text transform="matrix(1.0074 0 0 1 -125.542 30.5933)" fill="#000000" font-family="'Helvetica'" font-size="2.5731">100px</text><text transform="matrix(1.0074 0 0 1 -41 39)" fill="#000000" font-family="'Helvetica-Bold'" font-size="5.1462">.SVG</text><rect x="-126.514" y="34.815" fill="#000000" width="10.261" height="10.185"></rect><rect x="-126.477" y="31.766" fill="#000000" width="0.522" height="2.337"></rect><rect x="-116.812" y="31.766" fill="#000000" width="0.523" height="2.337"></rect><rect x="-127" y="32.337" fill="#000000" width="11.233" height="0.572"></rect><g><rect x="-83.805" y="33.844" fill="#000000" width="10.305" height="10.156"></rect><rect x="-76.809" y="28.707" fill="#000000" width="3.308" height="3.261"></rect></g><rect x="-178.5" y="22.5" fill="#000000" stroke="#FFFFFF" stroke-miterlimit="10" width="30" height="30"></rect><rect x="-136.5" y="22.5" fill="#000000" stroke="#FFFFFF" stroke-miterlimit="10" width="30" height="30"></rect><rect x="-93.5" y="22.5" fill="#000000" stroke="#FFFFFF" stroke-miterlimit="10" width="30" height="30"></rect><rect x="-49.5" y="22.5" fill="#000000" stroke="#FFFFFF" stroke-miterlimit="10" width="30" height="30"></rect></g><g><g><g><path fill-rule="evenodd" clip-rule="evenodd" fill="#000000" d="M36.159,5.084c1.265-1.773,3.559-1.539,3.559-1.539     l10.115,10.901l0.416-0.014l0.419,0.014L60.834,3.545c0,0,2.241-0.234,3.509,1.539c1.266,1.772,0.505-3.091-2.28-3.091H38.436     C35.651,1.993,34.89,6.856,36.159,5.084z M50.249,3.564l8.337,0.003l-8.18,8.541v-0.049l-0.157,0.179l-0.154-0.179v0.049     l-7.981-8.541L50.249,3.564z M25.53,98h5.115l4.052-8.163h-2.842L25.53,98z M66.251,89.837L70.021,98h5.113l-6.041-8.163H66.251z      M40.639,86.644h19.577v-5.689H40.639V86.644z M79.9,25.144c0-5.012-20.697-5.384-20.697-5.384l-3.48-3.716L44.975,15.99     l-4.485,3.742c0,0-17.198,0.306-19.702,5.412c0,0,0.069,50.34,0.069,52.939s5.089,8.572,8.566,8.572     c5.035,0,8.425,0.027,8.425,0.027l-0.074-8.475h25.463l-0.005,8.527c0,0,4.46-0.086,8.712-0.086c4.251,0,8.056-7.502,8.056-8.552     C80,74.295,79.9,25.144,79.9,25.144z M41.551,25.593c0,0.066,0.012,0.131,0.02,0.196c0.096-0.791,0.76-1.407,1.58-1.407h14.4     c0.818,0,1.486,0.617,1.582,1.407c0.008-0.065,0.02-0.13,0.02-0.196v0.389c0-0.066-0.012-0.128-0.02-0.192     c-0.096,0.812-0.764,1.571-1.582,1.571h-14.4c-0.82,0-1.484-0.759-1.58-1.571c-0.008,0.064-0.02,0.126-0.02,0.192V25.593z      M30.788,76.148c-1.255,0-2.27-1.029-2.27-2.295c0-1.268,1.015-2.293,2.27-2.293c1.251,0,2.269,1.025,2.269,2.293     C33.057,75.119,32.039,76.148,30.788,76.148z M49.124,55.239c0,1.768-1.43,3.197-3.198,3.197h-18.97     c-1.77,0-3.201-1.43-3.201-3.197v-21.86c0-1.768,1.431-3.201,3.201-3.201h18.97c1.769,0,3.198,1.434,3.198,3.201V55.239z      M70.364,76.324c-1.252,0-2.27-1.028-2.27-2.293c0-1.27,1.018-2.295,2.27-2.295c1.254,0,2.271,1.025,2.271,2.295     C72.636,75.296,71.618,76.324,70.364,76.324z M77.356,55.239c0,1.768-1.432,3.197-3.199,3.197H55.1     c-1.771,0-3.201-1.43-3.201-3.197v-21.86c0-1.768,1.431-3.201,3.201-3.201h19.058c1.768,0,3.199,1.434,3.199,3.201V55.239z"></path></g></g></g></svg>