<?xml version="1.0" encoding="UTF-8" standalone="no"?>
<svg
   xmlns:dc="http://purl.org/dc/elements/1.1/"
   xmlns:cc="http://creativecommons.org/ns#"
   xmlns:rdf="http://www.w3.org/1999/02/22-rdf-syntax-ns#"
   xmlns:svg="http://www.w3.org/2000/svg"
   xmlns="http://www.w3.org/2000/svg"
   xmlns:sodipodi="http://sodipodi.sourceforge.net/DTD/sodipodi-0.dtd"
   xmlns:inkscape="http://www.inkscape.org/namespaces/inkscape"
   version="1.0"
   x="0px"
   y="0px"
   viewBox="0 0 100 100"
   enable-background="new 0 0 51.46 100"
   xml:space="preserve"
   id="svg2"
   inkscape:version="0.91 r13725"
   sodipodi:docname="treinstation.svg"
   width="100"
   height="100"
   inkscape:export-filename="C:\dev\web\vr\csweb\images\treinstation.png"
   inkscape:export-xdpi="25"
   inkscape:export-ydpi="25"><metadata
     id="metadata14"><rdf:RDF><cc:Work
         rdf:about=""><dc:format>image/svg+xml</dc:format><dc:type
           rdf:resource="http://purl.org/dc/dcmitype/StillImage" /><dc:title></dc:title></cc:Work></rdf:RDF></metadata><defs
     id="defs12" /><sodipodi:namedview
     pagecolor="#ffffff"
     bordercolor="#666666"
     borderopacity="1"
     objecttolerance="10"
     gridtolerance="10"
     guidetolerance="10"
     inkscape:pageopacity="0"
     inkscape:pageshadow="2"
     inkscape:window-width="1600"
     inkscape:window-height="821"
     id="namedview10"
     showgrid="false"
     inkscape:zoom="2.36"
     inkscape:cx="25.73"
     inkscape:cy="50"
     inkscape:window-x="-9"
     inkscape:window-y="-9"
     inkscape:window-maximized="1"
     inkscape:current-layer="svg2" /><path
     d="m 66.164293,11.507191 -14.164008,0 -14.162206,0 c -4.984483,0 -9.02452,4.040036 -9.02452,9.024519 l 0,41.612464 c 0,4.515864 3.316381,8.255804 7.645699,8.919982 l 0,0.103636 0,4.888057 0,3.760667 -4.236496,0 0,3.510136 4.236496,0 0,3.760668 -4.236496,0 0,3.510136 4.236496,0 0,3.758865 4.888056,0 0,-3.759766 10.653872,0 10.653872,0 0,3.759766 4.888057,0 0,-3.759766 4.235594,0 0,-3.510137 -4.235594,0 0,-3.760667 4.235594,0 0,-3.510136 -4.235594,0 0,-3.760667 0,-4.888057 0,-0.103637 c 4.329318,-0.664177 7.645698,-4.405018 7.645698,-8.919982 l 0,-41.611562 c 0,-4.984483 -4.040937,-9.024519 -9.02452,-9.024519 z M 39.179951,65.653409 c -2.734211,0 -4.951139,-2.216928 -4.951139,-4.95114 0,-2.734211 2.216928,-4.950238 4.951139,-4.950238 2.734212,0 4.95114,2.216027 4.95114,4.950238 0,2.734212 -2.216928,4.95114 -4.95114,4.95114 z m 23.475107,21.433009 -10.654773,0 -10.652971,0 0,-3.760667 10.653872,0 10.653872,0 0,3.760667 z m 0,-7.269902 -10.654773,0 -10.652971,0 0,-3.760667 10.653872,0 10.653872,0 0,3.760667 z M 64.82152,65.653409 c -2.734212,0 -4.950239,-2.216928 -4.950239,-4.95114 0,-2.734211 2.216027,-4.950238 4.950239,-4.950238 2.734211,0 4.950238,2.216027 4.950238,4.950238 0,2.734212 -2.216027,4.95114 -4.950238,4.95114 z"
     id="path4"
     inkscape:connector-curvature="0" /><circle
     cx="47.864723"
     cy="7.2454615"
     r="3.0081735"
     id="circle6" /><circle
     cx="56.136749"
     cy="7.2454615"
     r="3.0081735"
     id="circle8" /></svg>